<svg id="visual" viewBox="0 0 900 600" width="900" height="600" xmlns="http://www.w3.org/2000/svg" xmlns:xlink="http://www.w3.org/1999/xlink" version="1.1"><path d="M163 0L181.2 20C199.3 40 235.7 80 238.7 120C241.7 160 211.3 200 220.5 240C229.7 280 278.3 320 323.7 360C369 400 411 440 434.2 480C457.3 520 461.7 560 463.8 580L466 600L0 600L0 580C0 560 0 520 0 480C0 440 0 400 0 360C0 320 0 280 0 240C0 200 0 160 0 120C0 80 0 40 0 20L0 0Z" fill="#212121" stroke-linecap="round" stroke-linejoin="miter"></path></svg>