<svg id="visual" viewBox="0 0 900 600" width="900" height="600" xmlns="http://www.w3.org/2000/svg" xmlns:xlink="http://www.w3.org/1999/xlink" version="1.1"><path d="M0 404L16.7 403C33.3 402 66.7 400 100 416C133.3 432 166.7 466 200 471.7C233.3 477.3 266.7 454.7 300 448.3C333.3 442 366.7 452 400 448.5C433.3 445 466.7 428 500 426.2C533.3 424.3 566.7 437.7 600 445.2C633.3 452.7 666.7 454.3 700 446.7C733.3 439 766.7 422 800 412.7C833.3 403.3 866.7 401.7 883.3 400.8L900 400L900 601L883.3 601C866.7 601 833.3 601 800 601C766.7 601 733.3 601 700 601C666.7 601 633.3 601 600 601C566.7 601 533.3 601 500 601C466.7 601 433.3 601 400 601C366.7 601 333.3 601 300 601C266.7 601 233.3 601 200 601C166.7 601 133.3 601 100 601C66.7 601 33.3 601 16.7 601L0 601Z" fill="#212121" stroke-linecap="round" stroke-linejoin="miter"></path></svg>